<svg aria-hidden="true" style="width:0;height:0;position:absolute;overflow:hidden" xmlns="http://www.w3.org/2000/svg"><defs><symbol id="scroll" viewBox="0 0 100 100"><path fill="#fff" d="M50 0a50 50 0 1 0 .001 100A50 50 0 0 0 50 0zm20.832 62.5L50 40.043 29.375 62.5a3.123 3.123 0 0 1-3.79-.398 3.127 3.127 0 0 1-.585-3.77l22.918-25a3.213 3.213 0 0 1 4.582 0l22.918 25a3.126 3.126 0 0 1-4.586 4.168z"/></symbol><symbol id="icon-pointer" viewBox="0 0 26 32"><path fill="none" stroke="#FFF" style="stroke:#fff" stroke-linejoin="round" stroke-linecap="round" stroke-width="6.4" d="M5.171 3.2 19.341 16 5.171 28.8"/></symbol></defs></svg>