<svg aria-hidden="true" style="position: absolute; width: 0; height: 0; overflow: hidden;" version="1.1" xmlns="http://www.w3.org/2000/svg" xmlns:xlink="http://www.w3.org/1999/xlink">
    <defs>
        <symbol id="scroll" viewBox="0 0 100 100">
            <path fill="white" d="m50 0c-13.262 0-25.98 5.2695-35.355 14.645s-14.645 22.094-14.645 35.355 5.2695 25.98 14.645 35.355 22.094 14.645 35.355 14.645 25.98-5.2695 35.355-14.645 14.645-22.094 14.645-35.355-5.2695-25.98-14.645-35.355-22.094-14.645-35.355-14.645zm20.832 62.5-20.832-22.457-20.625 22.457c-1.207 0.74219-2.7656 0.57812-3.7891-0.39844-1.0273-0.98047-1.2695-2.5273-0.58594-3.7695l22.918-25c0.60156-0.61328 1.4297-0.96094 2.2891-0.96094 0.86328 0 1.6914 0.34766 2.293 0.96094l22.918 25c0.88672 1.2891 0.6875 3.0352-0.47266 4.0898-1.1562 1.0508-2.9141 1.0859-4.1133 0.078125z"></path>
        </symbol>
        <symbol id="icon-pointer" viewBox="0 0 26 32">
            <path fill="none" stroke="#FFFFFF" style="stroke: #FFFFFF" stroke-linejoin="round" stroke-linecap="round" stroke-miterlimit="4" stroke-width="6.4" d="M5.171 3.2l14.17 12.8-14.17 12.8"></path>
        </symbol>
    </svg>
</defs>
</svg>